<?xml version="1.0" encoding="iso-8859-1"?>
<!-- Uploaded to: SVG Repo, www.svgrepo.com, Generator: SVG Repo Mixer Tools -->
<svg fill="#000000" height="800px" width="800px" version="1.1" id="Layer_1" xmlns="http://www.w3.org/2000/svg" xmlns:xlink="http://www.w3.org/1999/xlink" 
	 viewBox="0 0 512 512" xml:space="preserve">
<g>
	<g>
		<g>
			<path d="M349.58,148.645h-19.258V66.065c0-6.08-4.931-11.011-11.011-11.011h-24.774V38.538C294.538,17.288,277.25,0,256,0
				s-38.538,17.288-38.538,38.538v16.516h-24.774c-6.081,0-11.011,4.931-11.011,11.011v82.581h-19.259
				c-28.845,0-52.311,23.467-52.311,52.312v258.731c0,28.845,23.467,52.312,52.311,52.312H349.58
				c28.845,0,52.312-23.467,52.312-52.312V200.957C401.892,172.112,378.426,148.645,349.58,148.645z M239.484,38.538
				c0-9.107,7.409-16.516,16.516-16.516s16.516,7.409,16.516,16.516v16.516h-33.032V38.538z M203.699,77.075h104.602v71.57H203.699
				V77.075z M379.871,459.688c0,16.702-13.588,30.291-30.291,30.291H162.419c-16.701,0-30.289-13.588-30.289-30.291V200.957
				c0-16.702,13.588-30.291,30.289-30.291H349.58c16.702,0,30.291,13.588,30.291,30.291V459.688z"/>
			<path d="M346.839,192.688H165.161c-6.081,0-11.011,4.931-11.011,11.011v253.247c0,6.08,4.93,11.011,11.011,11.011h181.677
				c6.08,0,11.011-4.931,11.011-11.011v-81.755c0-6.08-4.931-11.011-11.011-11.011s-11.011,4.931-11.011,11.011v70.744H176.172
				V214.71h159.656v37.161c0,6.08,4.931,11.011,11.011,11.011s11.011-4.931,11.011-11.011v-48.172
				C357.849,197.619,352.92,192.688,346.839,192.688z"/>
			<path d="M346.839,303.071c-6.08,0-11.011,4.931-11.011,11.011v3.303c0,6.08,4.931,11.011,11.011,11.011
				s11.011-4.931,11.011-11.011v-3.303C357.849,308.002,352.92,303.071,346.839,303.071z"/>
			<path d="M256,247.636c-3.617,0-7.004,1.776-9.06,4.752c-7.63,11.047-45.697,67.487-45.697,93.751
				c0,30.194,24.564,54.756,54.756,54.756s54.758-24.564,54.758-54.756c0-26.264-38.066-82.703-45.698-93.751
				C263.004,249.413,259.616,247.636,256,247.636z M288.736,346.14c0,18.051-14.685,32.735-32.736,32.735
				s-32.735-14.685-32.735-32.735c0-11.916,17.018-43.009,32.737-67.582C271.72,303.124,288.736,334.211,288.736,346.14z"/>
		</g>
	</g>
</g>
</svg>