<!DOCTYPE svg PUBLIC "-//W3C//DTD SVG 1.1//EN" "http://www.w3.org/Graphics/SVG/1.1/DTD/svg11.dtd">
<!-- Uploaded to: SVG Repo, www.svgrepo.com, Transformed by: SVG Repo Mixer Tools -->
<svg width="800px" height="800px" viewBox="0 0 32 32" xmlns="http://www.w3.org/2000/svg" fill="#000000">
<g id="SVGRepo_bgCarrier" stroke-width="0"/>
<g id="SVGRepo_tracerCarrier" stroke-linecap="round" stroke-linejoin="round"/>
<g id="SVGRepo_iconCarrier"> <defs> <style>.cls-1{fill:#dd2853;}.cls-2{fill:#e291a8;}.cls-3{fill:#ea3d6f;}</style> </defs> <title/> <g data-name="Layer 4" id="Layer_4"> <path class="cls-1" d="M18,2H14a3,3,0,0,0-3,3V7a1,1,0,0,0,1,1h8a1,1,0,0,0,1-1V5A3,3,0,0,0,18,2Z"/> <path class="cls-2" d="M26,21.21V27a3,3,0,0,1-3,3H9a3,3,0,0,1-2.84-2.06,1,1,0,0,1,.27-1L9.51,24a1,1,0,0,0,.32-.73.94.94,0,0,0-.26-.67,1,1,0,0,0-1.42-.07L7.68,23a1,1,0,0,1-1.08.19,1,1,0,0,1-.6-.92V16c0-.34,0-.67,0-1A10,10,0,0,1,16,6a9.87,9.87,0,0,1,7.07,2.94A7.92,7.92,0,0,1,24,10a1,1,0,0,1,.11,1,1,1,0,0,1-.84.58,4.4,4.4,0,0,0,.32,8.78,4,4,0,0,0,1.12-.15,1,1,0,0,1,.88.16A1,1,0,0,1,26,21.21Z"/> <path class="cls-1" d="M23.6,9.6a3,3,0,0,0-.46,0A6.4,6.4,0,0,0,23.6,22.4a6.28,6.28,0,0,0,1.66-.22A6.4,6.4,0,0,0,23.6,9.6Z"/> <path class="cls-1" d="M19,16a1.08,1.08,0,0,1-1.14,1H6V16c0-.34,0-.67,0-1H17.86A1.08,1.08,0,0,1,19,16Z"/> <path class="cls-1" d="M26,24v2H10.12a1,1,0,1,1,0-2Z"/> <path class="cls-2" d="M25,15H24V13a1,1,0,0,0-2,0v3a1,1,0,0,0,1,1h2a1,1,0,0,0,0-2Z"/> <path class="cls-3" d="M11,21.26a3,3,0,0,0-4.24-.16L5,22.8a1,1,0,0,0,0,1.41l2.72,2.94a1,1,0,0,0,.69.32h0A1,1,0,0,0,9,27.2l1.82-1.69A3,3,0,0,0,11,21.26Z"/> <path class="cls-1" d="M9.09,25.79,6.37,22.85a1,1,0,0,0-.69-.32A1,1,0,0,0,5,22.8L3.13,24.5a3,3,0,0,0,4.08,4.4L9,27.2A1,1,0,0,0,9.09,25.79Z"/> </g> </g>
</svg>